<svg width="1000" height="1000" viewBox="0 0 1000 1000" fill="none" xmlns="http://www.w3.org/2000/svg">
<g clip-path="url(#clip0_4_2)">
<path d="M1000 0H0V1000H1000V0Z" fill="#D0DAE0"/>
<path d="M843.997 689.285H854V645.871C854 603.696 818.988 568.964 776.473 568.964C742.711 568.964 712.699 544.155 707.699 511.904C703.947 492.058 710.199 472.211 722.704 456.085C735.208 441.2 755.216 432.516 775.222 432.516C818.988 432.516 854 397.785 854 354.371V310.955H843.997C777.723 310.955 720.202 268.78 698.945 208H567.649V350.649C567.649 384.14 542.64 413.911 510.129 418.873C505.126 420.113 500.126 420.113 496.374 420.113C460.111 417.633 431.351 387.862 431.351 351.889V208H300.055C278.798 268.78 221.277 310.955 155.003 310.955H145V354.371C145 396.545 180.012 431.276 222.527 431.276C256.289 431.276 286.301 456.085 291.301 488.336C295.053 508.184 288.801 528.029 276.296 544.155C263.792 559.04 243.784 567.724 223.778 567.724C180.012 567.724 145 602.455 145 644.629V688.045H155.003C221.277 688.045 278.798 730.22 300.055 791H431.351V648.351C431.351 614.86 456.36 585.089 488.871 580.127C492.623 578.887 497.625 578.887 501.375 578.887C538.889 581.369 567.649 611.138 567.649 647.111V791H698.945C718.953 731.46 777.723 689.285 843.997 689.285Z" fill="#020610"/>
</g>
<defs>
<clipPath id="clip0_4_2">
<rect width="1000" height="1000" fill="white"/>
</clipPath>
</defs>
</svg>
